<?xml version="1.0" standalone="no"?>
<svg xmlns:xlink="http://www.w3.org/1999/xlink" id="wave" style="transform:rotate(180deg); transition: 0.3s" viewBox="0 0 1440 100" version="1.1" xmlns="http://www.w3.org/2000/svg"><defs><linearGradient id="sw-gradient-0" x1="0" x2="0" y1="1" y2="0"><stop stop-color="rgba(255, 249, 234, 1)" offset="0%"/><stop stop-color="rgba(255, 249, 234, 1)" offset="100%"/></linearGradient></defs><path style="transform:translate(0, 0px); opacity:1" fill="url(#sw-gradient-0)" d="M0,10L34.3,21.7C68.6,33,137,57,206,63.3C274.3,70,343,60,411,51.7C480,43,549,37,617,30C685.7,23,754,17,823,16.7C891.4,17,960,23,1029,33.3C1097.1,43,1166,57,1234,61.7C1302.9,67,1371,63,1440,51.7C1508.6,40,1577,20,1646,20C1714.3,20,1783,40,1851,50C1920,60,1989,60,2057,53.3C2125.7,47,2194,33,2263,35C2331.4,37,2400,53,2469,65C2537.1,77,2606,83,2674,71.7C2742.9,60,2811,30,2880,21.7C2948.6,13,3017,27,3086,28.3C3154.3,30,3223,20,3291,21.7C3360,23,3429,37,3497,45C3565.7,53,3634,57,3703,51.7C3771.4,47,3840,33,3909,38.3C3977.1,43,4046,67,4114,68.3C4182.9,70,4251,50,4320,36.7C4388.6,23,4457,17,4526,15C4594.3,13,4663,17,4731,23.3C4800,30,4869,40,4903,45L4937.1,50L4937.1,100L4902.9,100C4868.6,100,4800,100,4731,100C4662.9,100,4594,100,4526,100C4457.1,100,4389,100,4320,100C4251.4,100,4183,100,4114,100C4045.7,100,3977,100,3909,100C3840,100,3771,100,3703,100C3634.3,100,3566,100,3497,100C3428.6,100,3360,100,3291,100C3222.9,100,3154,100,3086,100C3017.1,100,2949,100,2880,100C2811.4,100,2743,100,2674,100C2605.7,100,2537,100,2469,100C2400,100,2331,100,2263,100C2194.3,100,2126,100,2057,100C1988.6,100,1920,100,1851,100C1782.9,100,1714,100,1646,100C1577.1,100,1509,100,1440,100C1371.4,100,1303,100,1234,100C1165.7,100,1097,100,1029,100C960,100,891,100,823,100C754.3,100,686,100,617,100C548.6,100,480,100,411,100C342.9,100,274,100,206,100C137.1,100,69,100,34,100L0,100Z"/></svg>